<svg width="400" height="300" viewBox="0 0 400 300" fill="none" xmlns="http://www.w3.org/2000/svg">
  <!-- Фон -->
  <rect width="400" height="300" fill="#f5f5f5"/>
  
  <!-- Заголовок -->
  <rect x="0" y="0" width="400" height="40" fill="#2d2d2d"/>
  <text x="20" y="25" fill="white" font-family="Arial, sans-serif" font-size="14" font-weight="bold">⚙️ Админ-панель</text>
  
  <!-- Боковая панель -->
  <rect x="0" y="40" width="120" height="260" fill="#ffffff" stroke="#e0e0e0" stroke-width="1"/>
  
  <!-- Меню -->
  <rect x="10" y="50" width="100" height="30" rx="4" fill="#e3f2fd"/>
  <text x="60" y="68" text-anchor="middle" fill="#1976d2" font-family="Arial, sans-serif" font-size="10" font-weight="bold">👥 Пользователи</text>
  
  <rect x="10" y="90" width="100" height="30" rx="4" fill="#f8f9fa"/>
  <text x="60" y="108" text-anchor="middle" fill="#333" font-family="Arial, sans-serif" font-size="10">💬 Чаты</text>
  
  <rect x="10" y="130" width="100" height="30" rx="4" fill="#f8f9fa"/>
  <text x="60" y="148" text-anchor="middle" fill="#333" font-family="Arial, sans-serif" font-size="10">📊 Статистика</text>
  
  <rect x="10" y="170" width="100" height="30" rx="4" fill="#f8f9fa"/>
  <text x="60" y="188" text-anchor="middle" fill="#333" font-family="Arial, sans-serif" font-size="10">🔧 Настройки</text>
  
  <!-- Основная область -->
  <rect x="120" y="40" width="280" height="260" fill="#ffffff" stroke="#e0e0e0" stroke-width="1"/>
  
  <!-- Заголовок раздела -->
  <text x="140" y="65" fill="#333" font-family="Arial, sans-serif" font-size="14" font-weight="bold">Управление пользователями</text>
  
  <!-- Статистика -->
  <rect x="140" y="80" width="120" height="40" rx="4" fill="#e8f5e8" stroke="#4caf50" stroke-width="1"/>
  <text x="200" y="95" text-anchor="middle" fill="#2e7d32" font-family="Arial, sans-serif" font-size="16" font-weight="bold">156</text>
  <text x="200" y="110" text-anchor="middle" fill="#2e7d32" font-family="Arial, sans-serif" font-size="10">Активных пользователей</text>
  
  <rect x="280" y="80" width="120" height="40" rx="4" fill="#fff3e0" stroke="#ff9800" stroke-width="1"/>
  <text x="340" y="95" text-anchor="middle" fill="#f57c00" font-family="Arial, sans-serif" font-size="16" font-weight="bold">23</text>
  <text x="340" y="110" text-anchor="middle" fill="#f57c00" font-family="Arial, sans-serif" font-size="10">Онлайн сейчас</text>
  
  <!-- Список пользователей -->
  <text x="140" y="140" fill="#333" font-family="Arial, sans-serif" font-size="12" font-weight="bold">Последние пользователи</text>
  
  <!-- Пользователь 1 -->
  <rect x="140" y="150" width="250" height="25" rx="4" fill="#f8f9fa"/>
  <circle cx="155" cy="162" r="6" fill="#4caf50"/>
  <text x="155" y="166" text-anchor="middle" fill="white" font-family="Arial, sans-serif" font-size="6">А</text>
  <text x="170" y="165" fill="#333" font-family="Arial, sans-serif" font-size="10">Анна Иванова</text>
  <text x="300" y="165" text-anchor="end" fill="#4caf50" font-family="Arial, sans-serif" font-size="8">Онлайн</text>
  <text x="350" y="165" text-anchor="end" fill="#999" font-family="Arial, sans-serif" font-size="8">2 мин</text>
  
  <!-- Пользователь 2 -->
  <rect x="140" y="180" width="250" height="25" rx="4" fill="#f8f9fa"/>
  <circle cx="155" cy="192" r="6" fill="#ff9800"/>
  <text x="155" y="196" text-anchor="middle" fill="white" font-family="Arial, sans-serif" font-size="6">П</text>
  <text x="170" y="195" fill="#333" font-family="Arial, sans-serif" font-size="10">Петр Сидоров</text>
  <text x="300" y="195" text-anchor="end" fill="#ff9800" font-family="Arial, sans-serif" font-size="8">Недавно</text>
  <text x="350" y="195" text-anchor="end" fill="#999" font-family="Arial, sans-serif" font-size="8">15 мин</text>
  
  <!-- Пользователь 3 -->
  <rect x="140" y="210" width="250" height="25" rx="4" fill="#f8f9fa"/>
  <circle cx="155" cy="222" r="6" fill="#9e9e9e"/>
  <text x="155" y="226" text-anchor="middle" fill="white" font-family="Arial, sans-serif" font-size="6">М</text>
  <text x="170" y="225" fill="#333" font-family="Arial, sans-serif" font-size="10">Мария Козлова</text>
  <text x="300" y="225" text-anchor="end" fill="#9e9e9e" font-family="Arial, sans-serif" font-size="8">Офлайн</text>
  <text x="350" y="225" text-anchor="end" fill="#999" font-family="Arial, sans-serif" font-size="8">1 час</text>
  
  <!-- Кнопки действий -->
  <rect x="140" y="250" width="80" height="25" rx="4" fill="#4caf50"/>
  <text x="180" y="265" text-anchor="middle" fill="white" font-family="Arial, sans-serif" font-size="10">Добавить</text>
  
  <rect x="230" y="250" width="80" height="25" rx="4" fill="#2196f3"/>
  <text x="270" y="265" text-anchor="middle" fill="white" font-family="Arial, sans-serif" font-size="10">Редактировать</text>
  
  <rect x="320" y="250" width="70" height="25" rx="4" fill="#f44336"/>
  <text x="355" y="265" text-anchor="middle" fill="white" font-family="Arial, sans-serif" font-size="10">Удалить</text>
</svg>
