<svg width="400" height="300" viewBox="0 0 400 300" fill="none" xmlns="http://www.w3.org/2000/svg">
  <!-- Фон -->
  <rect width="400" height="300" fill="#1a1a1a"/>
  
  <!-- Заголовок -->
  <rect x="20" y="20" width="360" height="40" rx="8" fill="#2d2d2d"/>
  <text x="200" y="45" text-anchor="middle" fill="#ffffff" font-family="Arial, sans-serif" font-size="16" font-weight="bold">Лайв чат для корпорации</text>
  
  <!-- Основной интерфейс чата -->
  <rect x="20" y="80" width="360" height="180" rx="12" fill="#ffffff" stroke="#e0e0e0" stroke-width="2"/>
  
  <!-- Список чатов слева -->
  <rect x="30" y="90" width="120" height="160" rx="6" fill="#f8f9fa"/>
  <text x="90" y="110" text-anchor="middle" fill="#333" font-family="Arial, sans-serif" font-size="12" font-weight="bold">Чаты</text>
  
  <!-- Элементы списка чатов -->
  <rect x="40" y="120" width="100" height="25" rx="4" fill="#e3f2fd"/>
  <text x="90" y="135" text-anchor="middle" fill="#1976d2" font-family="Arial, sans-serif" font-size="10"># Общий</text>
  
  <rect x="40" y="150" width="100" height="25" rx="4" fill="#f3e5f5"/>
  <text x="90" y="165" text-anchor="middle" fill="#7b1fa2" font-family="Arial, sans-serif" font-size="10"># Разработка</text>
  
  <rect x="40" y="180" width="100" height="25" rx="4" fill="#e8f5e8"/>
  <text x="90" y="195" text-anchor="middle" fill="#388e3c" font-family="Arial, sans-serif" font-size="10"># Маркетинг</text>
  
  <rect x="40" y="210" width="100" height="25" rx="4" fill="#fff3e0"/>
  <text x="90" y="225" text-anchor="middle" fill="#f57c00" font-family="Arial, sans-serif" font-size="10"># Поддержка</text>
  
  <!-- Область сообщений -->
  <rect x="170" y="90" width="200" height="120" rx="6" fill="#ffffff"/>
  <text x="270" y="110" text-anchor="middle" fill="#333" font-family="Arial, sans-serif" font-size="12" font-weight="bold">Общий чат</text>
  
  <!-- Сообщения -->
  <rect x="180" y="125" width="80" height="20" rx="10" fill="#e3f2fd"/>
  <text x="220" y="137" text-anchor="middle" fill="#1976d2" font-family="Arial, sans-serif" font-size="9">Привет всем!</text>
  
  <rect x="290" y="150" width="70" height="20" rx="10" fill="#c8e6c9"/>
  <text x="325" y="162" text-anchor="middle" fill="#2e7d32" font-family="Arial, sans-serif" font-size="9">Как дела?</text>
  
  <rect x="180" y="175" width="90" height="20" rx="10" fill="#fff3e0"/>
  <text x="225" y="187" text-anchor="middle" fill="#f57c00" font-family="Arial, sans-serif" font-size="9">Встреча в 15:00</text>
  
  <!-- Поле ввода -->
  <rect x="170" y="220" width="200" height="40" rx="6" fill="#f5f5f5" stroke="#ddd" stroke-width="1"/>
  <text x="270" y="245" text-anchor="middle" fill="#666" font-family="Arial, sans-serif" font-size="10">Введите сообщение...</text>
  
  <!-- Иконки функций -->
  <circle cx="185" cy="240" r="8" fill="#4caf50"/>
  <text x="185" y="244" text-anchor="middle" fill="white" font-family="Arial, sans-serif" font-size="8">📎</text>
  
  <circle cx="205" cy="240" r="8" fill="#2196f3"/>
  <text x="205" y="244" text-anchor="middle" fill="white" font-family="Arial, sans-serif" font-size="8">📷</text>
  
  <circle cx="225" cy="240" r="8" fill="#ff9800"/>
  <text x="225" y="244" text-anchor="middle" fill="white" font-family="Arial, sans-serif" font-size="8">📞</text>
  
  <!-- Статус онлайн -->
  <circle cx="350" cy="100" r="6" fill="#4caf50"/>
  <text x="350" y="104" text-anchor="middle" fill="white" font-family="Arial, sans-serif" font-size="6">●</text>
  <text x="365" y="105" fill="#4caf50" font-family="Arial, sans-serif" font-size="8">12 онлайн</text>
</svg>
