<svg width="800" height="480" viewBox="0 0 800 480" fill="none" xmlns="http://www.w3.org/2000/svg">
  <defs>
    <linearGradient id="dhBg" x1="0" y1="0" x2="800" y2="480" gradientUnits="userSpaceOnUse">
      <stop stop-color="#12161c"/>
      <stop offset="1" stop-color="#1a222c"/>
    </linearGradient>
    <linearGradient id="dhAccent" x1="100" y1="60" x2="700" y2="420" gradientUnits="userSpaceOnUse">
      <stop stop-color="#38bdf8"/>
      <stop offset="1" stop-color="#0ea5e9"/>
    </linearGradient>
  </defs>
  <rect width="800" height="480" fill="url(#dhBg)"/>
  <g opacity="0.16" stroke="#38bdf8">
    <path d="M0 96H800M0 192H800M0 288H800M0 384H800"/>
    <path d="M160 0V480M320 0V480M480 0V480M640 0V480"/>
  </g>
  <rect x="64" y="64" width="460" height="300" rx="20" fill="#0d1117" stroke="url(#dhAccent)" stroke-width="2"/>
  <rect x="88" y="96" width="180" height="14" rx="7" fill="#38bdf8" opacity="0.9"/>
  <rect x="88" y="130" width="300" height="10" rx="5" fill="#64748b"/>
  <rect x="88" y="154" width="240" height="10" rx="5" fill="#475569"/>
  <rect x="88" y="200" width="110" height="100" rx="14" fill="#151b23" stroke="#38bdf8" stroke-opacity="0.35"/>
  <rect x="214" y="200" width="110" height="100" rx="14" fill="#151b23" stroke="#38bdf8" stroke-opacity="0.35"/>
  <rect x="340" y="200" width="110" height="100" rx="14" fill="#151b23" stroke="#38bdf8" stroke-opacity="0.35"/>
  <circle cx="143" cy="236" r="14" fill="#38bdf8" opacity="0.7"/>
  <circle cx="269" cy="236" r="14" fill="#38bdf8" opacity="0.7"/>
  <circle cx="395" cy="236" r="14" fill="#38bdf8" opacity="0.7"/>
  <rect x="104" y="268" width="78" height="8" rx="4" fill="#64748b"/>
  <rect x="230" y="268" width="78" height="8" rx="4" fill="#64748b"/>
  <rect x="356" y="268" width="78" height="8" rx="4" fill="#64748b"/>
  <rect x="560" y="100" width="176" height="268" rx="24" fill="#0d1117" stroke="url(#dhAccent)" stroke-width="2"/>
  <rect x="586" y="132" width="124" height="16" rx="8" fill="#38bdf8" opacity="0.85"/>
  <rect x="586" y="172" width="124" height="40" rx="12" fill="#151b23" stroke="#38bdf8" stroke-opacity="0.3"/>
  <rect x="586" y="228" width="124" height="40" rx="12" fill="#151b23" stroke="#38bdf8" stroke-opacity="0.3"/>
  <rect x="586" y="284" width="124" height="40" rx="12" fill="#151b23" stroke="#38bdf8" stroke-opacity="0.3"/>
  <text x="64" y="420" fill="#38bdf8" font-family="Arial, sans-serif" font-size="26" font-weight="700">Dropshipping Hub</text>
  <text x="64" y="452" fill="#94a3b8" font-family="Arial, sans-serif" font-size="16">Catalog sync / Connectors / Orders</text>
</svg>
