<svg width="200" height="400" viewBox="0 0 200 400" fill="none" xmlns="http://www.w3.org/2000/svg">
  <!-- Фон телефона -->
  <rect width="200" height="400" rx="20" fill="#1a1a1a"/>
  <rect x="10" y="20" width="180" height="360" rx="15" fill="#ffffff"/>
  
  <!-- Статус бар -->
  <rect x="10" y="20" width="180" height="25" rx="15" fill="#000000"/>
  <text x="100" y="35" text-anchor="middle" fill="white" font-family="Arial, sans-serif" font-size="10">9:41</text>
  <text x="180" y="35" text-anchor="end" fill="white" font-family="Arial, sans-serif" font-size="8">100%</text>
  
  <!-- Заголовок -->
  <rect x="10" y="45" width="180" height="40" fill="#1976d2"/>
  <text x="100" y="65" text-anchor="middle" fill="white" font-family="Arial, sans-serif" font-size="12" font-weight="bold">Корпоративный чат</text>
  <circle cx="170" cy="60" r="6" fill="#4caf50"/>
  <text x="170" y="64" text-anchor="middle" fill="white" font-family="Arial, sans-serif" font-size="6">●</text>
  
  <!-- Список чатов -->
  <rect x="10" y="85" width="180" height="250" fill="#f8f9fa"/>
  
  <!-- Чат 1 -->
  <rect x="20" y="95" width="160" height="40" rx="8" fill="#e3f2fd"/>
  <circle cx="35" cy="110" r="8" fill="#1976d2"/>
  <text x="35" y="114" text-anchor="middle" fill="white" font-family="Arial, sans-serif" font-size="8">А</text>
  <text x="50" y="105" fill="#1976d2" font-family="Arial, sans-serif" font-size="10" font-weight="bold"># Общий</text>
  <text x="50" y="118" fill="#666" font-family="Arial, sans-serif" font-size="8">Доброе утро! Как дела...</text>
  <text x="160" y="105" text-anchor="end" fill="#999" font-family="Arial, sans-serif" font-size="8">09:15</text>
  <circle cx="170" cy="105" r="6" fill="#f44336"/>
  <text x="170" y="109" text-anchor="middle" fill="white" font-family="Arial, sans-serif" font-size="6">3</text>
  
  <!-- Чат 2 -->
  <rect x="20" y="145" width="160" height="40" rx="8" fill="#f3e5f5"/>
  <circle cx="35" cy="160" r="8" fill="#7b1fa2"/>
  <text x="35" y="164" text-anchor="middle" fill="white" font-family="Arial, sans-serif" font-size="8">Р</text>
  <text x="50" y="155" fill="#7b1fa2" font-family="Arial, sans-serif" font-size="10" font-weight="bold"># Разработка</text>
  <text x="50" y="168" fill="#666" font-family="Arial, sans-serif" font-size="8">Все идет по плану! 👍</text>
  <text x="160" y="155" text-anchor="end" fill="#999" font-family="Arial, sans-serif" font-size="8">09:18</text>
  
  <!-- Чат 3 -->
  <rect x="20" y="195" width="160" height="40" rx="8" fill="#e8f5e8"/>
  <circle cx="35" cy="210" r="8" fill="#388e3c"/>
  <text x="35" y="214" text-anchor="middle" fill="white" font-family="Arial, sans-serif" font-size="8">М</text>
  <text x="50" y="205" fill="#388e3c" font-family="Arial, sans-serif" font-size="10" font-weight="bold"># Маркетинг</text>
  <text x="50" y="218" fill="#666" font-family="Arial, sans-serif" font-size="8">Новая кампания готова</text>
  <text x="160" y="205" text-anchor="end" fill="#999" font-family="Arial, sans-serif" font-size="8">08:45</text>
  
  <!-- Чат 4 -->
  <rect x="20" y="245" width="160" height="40" rx="8" fill="#fff3e0"/>
  <circle cx="35" cy="260" r="8" fill="#f57c00"/>
  <text x="35" y="264" text-anchor="middle" fill="white" font-family="Arial, sans-serif" font-size="8">П</text>
  <text x="50" y="255" fill="#f57c00" font-family="Arial, sans-serif" font-size="10" font-weight="bold"># Поддержка</text>
  <text x="50" y="268" fill="#666" font-family="Arial, sans-serif" font-size="8">Новые тикеты</text>
  <text x="160" y="255" text-anchor="end" fill="#999" font-family="Arial, sans-serif" font-size="8">08:30</text>
  
  <!-- Нижняя панель -->
  <rect x="10" y="345" width="180" height="35" rx="8" fill="#f5f5f5"/>
  <rect x="20" y="355" width="140" height="15" rx="7" fill="white" stroke="#ddd" stroke-width="1"/>
  <text x="30" y="365" fill="#999" font-family="Arial, sans-serif" font-size="8">Сообщение...</text>
  
  <!-- Кнопка отправки -->
  <circle cx="170" cy="362" r="8" fill="#4caf50"/>
  <text x="170" y="366" text-anchor="middle" fill="white" font-family="Arial, sans-serif" font-size="8">→</text>
</svg>
